<?xml version="1.0" encoding="utf-8"?>
<!-- Generator: Adobe Illustrator 16.0.0, SVG Export Plug-In . SVG Version: 6.00 Build 0)  -->
<!DOCTYPE svg PUBLIC "-//W3C//DTD SVG 1.1//EN" "http://www.w3.org/Graphics/SVG/1.1/DTD/svg11.dtd">
<svg version="1.1" id="Calque_1" xmlns="http://www.w3.org/2000/svg" xmlns:xlink="http://www.w3.org/1999/xlink" x="0px" y="0px"
	 width="800px" height="600px" viewBox="0 0 800 600" style="enable-background:new 0 0 800 600;" xml:space="preserve">
<g>
	<path style="fill:#DCDCDC;" d="M56.62,5c10.969,0.871,19.611,10.069,19.611,21.262c0,11.396-8.966,20.693-20.221,21.271V51.9
		c3.071,0.485,5.426,3.154,5.426,6.362c0,0.784-0.145,1.536-0.4,2.232l3.992,2.305c6.17-9.318,18.615-12.359,28.422-6.696
		c9.786,5.651,13.4,17.907,8.467,27.893c6.771-13.177,2.062-29.512-10.911-37c-3.243-1.873-6.7-3.014-10.2-3.486
		c1.339-3.264,2.081-6.836,2.081-10.583C82.887,18.059,71.268,5.886,56.62,5L56.62,5z"/>
	<path style="fill:#DCDCDC;" d="M53.044,5.016c-14.575,0.963-26.119,13.095-26.119,27.91c0,3.641,0.696,7.119,1.962,10.306
		c-3.393,0.497-6.754,1.627-9.905,3.446C6.099,54.117,1.378,70.28,7.952,83.412c-4.747-9.94-1.106-22.032,8.594-27.634
		c9.87-5.698,22.402-2.581,28.53,6.876l3.853-2.223c-0.242-0.677-0.366-1.409-0.366-2.168c0-3.071,2.155-5.643,5.032-6.281v-4.457
		c-11.153-0.684-20.006-9.938-20.006-21.264C33.589,15.119,42.144,5.959,53.044,5.016L53.044,5.016z"/>
	<path style="fill:#DCDCDC;" d="M54.29,31.803c-5.63,0.129-10.819,2.046-15.079,5.165c0.34,0.503,0.706,0.991,1.091,1.458
		c0.386,0.468,0.794,0.916,1.222,1.344c0.428,0.428,0.876,0.836,1.344,1.222c0.343,0.284,0.712,0.539,1.075,0.799
		c3.144-2.066,6.91-3.275,10.966-3.275c4.058,0,7.812,1.209,10.957,3.275c0.363-0.26,0.731-0.515,1.075-0.799
		c0.468-0.386,0.916-0.794,1.344-1.222c0.428-0.428,0.836-0.876,1.222-1.344c0.386-0.468,0.752-0.956,1.093-1.458
		c-4.415-3.23-9.826-5.165-15.69-5.165c-0.14,0-0.278-0.002-0.418,0C54.428,31.804,54.357,31.8,54.29,31.803L54.29,31.803z"/>
	<path style="fill:#DCDCDC;" d="M28.628,55.297C28.035,60.735,29.068,66.39,32,71.47c2.933,5.08,7.314,8.809,12.316,11.014
		c0.269-0.548,0.508-1.11,0.717-1.678c0.214-0.57,0.398-1.143,0.555-1.728c0.157-0.585,0.292-1.18,0.391-1.777
		c0.075-0.438,0.115-0.883,0.154-1.329c-3.357-1.689-6.288-4.346-8.317-7.86C35.79,64.6,34.954,60.74,35.17,56.984
		c-0.407-0.185-0.812-0.373-1.23-0.53c-0.568-0.211-1.142-0.396-1.728-0.553c-0.585-0.158-1.177-0.282-1.776-0.383
		C29.839,55.417,29.234,55.34,28.628,55.297L28.628,55.297z"/>
	<path style="fill:#DCDCDC;" d="M81.368,55.615c-0.604,0.043-1.21,0.121-1.807,0.221c-0.598,0.101-1.19,0.227-1.777,0.383
		c-0.582,0.157-1.165,0.343-1.732,0.554c-0.418,0.156-0.816,0.354-1.225,0.538c0.217,3.753-0.617,7.616-2.648,11.128
		c-2.025,3.512-4.958,6.163-8.318,7.854c0.045,0.445,0.082,0.888,0.157,1.328c0.102,0.598,0.227,1.19,0.383,1.775
		c0.157,0.585,0.342,1.167,0.556,1.734c0.209,0.57,0.448,1.125,0.717,1.673c5.003-2.208,9.384-5.929,12.315-11.007
		C80.92,66.716,81.961,61.053,81.368,55.615L81.368,55.615z"/>
	<path style="fill:#DCDCDC;" d="M50.151,62.492l-3.878,2.248c4.985,10.003,1.401,22.296-8.408,27.959
		c-9.759,5.635-22.142,2.671-28.342-6.541c8.046,12.395,24.497,16.459,37.442,8.985c3.136-1.81,5.782-4.145,7.903-6.817
		c2.163,2.81,4.9,5.251,8.164,7.136c12.96,7.481,29.432,3.402,37.467-9.025c-6.188,9.249-18.588,12.243-28.367,6.596
		c-9.869-5.697-13.438-18.109-8.311-28.146l-4.032-2.329C58.611,63.869,56.901,64.7,55,64.7
		C53.068,64.7,51.331,63.841,50.151,62.492L50.151,62.492z"/>
</g>
<g>
	<path style="fill:#DCDCDC;" d="M204.617,86l-5.912-5.912c-0.872-0.872-2.39-0.872-3.26,0l-0.635,0.635l-20.209-20.209l2.252-2.254
		c0.681-0.679,1.058-1.586,1.058-2.55c0-0.963-0.375-1.87-1.057-2.551l-3.307-3.306c-1.362-1.364-3.739-1.362-5.101,0l-2.254,2.252
		l-31.408-31.406c-2.507-2.509-5.651-4.29-9.095-5.151c-2.844-0.71-5.444-2.183-7.517-4.255l-4.768-4.769L112.844,6l-2.367,0.085
		l-0.396,5.132c-0.618,8.028,2.295,15.9,7.989,21.596l33.708,33.708l-2.254,2.252c-0.681,0.681-1.057,1.588-1.057,2.551
		c0,0.963,0.375,1.871,1.057,2.55l3.308,3.309c0.681,0.681,1.586,1.055,2.55,1.055c0.963,0,1.87-0.374,2.551-1.057l2.254-2.254
		l20.208,20.209l-1.018,1.018c-0.894,0.898-0.894,2.359,0.001,3.26l5.913,5.914c0.437,0.433,1.014,0.672,1.629,0.672
		c0.615,0,1.192-0.239,1.63-0.674l16.065-16.066C205.515,88.361,205.515,86.898,204.617,86L204.617,86z M137.363,40.093
		c-0.331,0.332-0.766,0.498-1.201,0.498c-0.434,0-0.868-0.166-1.201-0.498l-8.407-8.409c-0.664-0.663-0.664-1.738,0-2.402
		c0.663-0.663,1.738-0.663,2.402,0l8.407,8.409C138.027,38.355,138.027,39.431,137.363,40.093L137.363,40.093z M180.88,71.598
		l2.402,2.404l-9.61,9.609l-2.402-2.403L180.88,71.598L180.88,71.598z M155.531,74.779c-0.041,0.041-0.09,0.062-0.149,0.062
		l-3.456-3.369c-0.069-0.07-0.069-0.226,0-0.296l18.922-18.922h0.297l3.306,3.306c0.07,0.07,0.072,0.226,0,0.297l-16.667,16.667
		h0.001L155.531,74.779L155.531,74.779z M167.393,67.721l4.806-4.806l1.475,1.476l-9.609,9.61l-1.475-1.477L167.393,67.721
		L167.393,67.721z M180.88,90.817l9.61-9.609l1.918,1.918l-9.611,9.609L180.88,90.817L180.88,90.817z"/>
</g>
</svg>
